<svg width="672" height="609" viewBox="0 0 672 609" fill="none" xmlns="http://www.w3.org/2000/svg">
<path d="M494.885 75.3453C491.202 71.9415 484.114 59.0457 490.908 52.9733C497.703 46.9009 503.754 52.414 504.221 55.3703C504.687 58.3266 503.443 83.2394 494.885 75.3453Z" fill="#263238"/>
<path d="M493.329 539.229L477.89 539.357L473.688 506.374L489.11 506.246L493.329 539.229Z" fill="#FF8B7B"/>
<path d="M477.872 537.711L494.712 537.567C495.022 537.571 495.323 537.666 495.572 537.838C495.82 538.011 496.003 538.251 496.095 538.526L500.175 551.166C500.283 551.46 500.313 551.774 500.263 552.081C500.212 552.388 500.082 552.68 499.883 552.931C499.685 553.182 499.424 553.385 499.123 553.522C498.821 553.66 498.488 553.729 498.152 553.723C492.084 553.723 483.266 553.419 475.677 553.483C466.756 553.483 462.779 554.058 452.302 554.154C445.974 554.154 443.658 548.305 446.337 547.762C458.215 545.221 464.352 544.886 474.293 538.861C475.34 538.164 476.584 537.764 477.872 537.711V537.711Z" fill="#263238"/>
<path opacity="0.2" d="M473.688 506.39L475.867 523.392L491.288 523.265L489.127 506.262L473.688 506.39Z" fill="black"/>
<path d="M471.493 540.251C473.157 540.224 474.814 540.036 476.437 539.692C476.514 539.682 476.585 539.648 476.638 539.595C476.691 539.543 476.724 539.476 476.731 539.404C476.738 539.336 476.722 539.266 476.685 539.206C476.648 539.146 476.591 539.098 476.524 539.069C475.798 538.733 469.314 535.873 467.533 536.88C467.369 536.977 467.234 537.112 467.143 537.272C467.053 537.431 467.008 537.61 467.015 537.79C467.011 538.098 467.084 538.402 467.227 538.679C467.371 538.956 467.583 539.199 467.845 539.388C468.926 540.037 470.207 540.34 471.493 540.251V540.251ZM475.192 539.229C471.856 539.772 469.314 539.66 468.277 538.893C468.097 538.764 467.954 538.595 467.861 538.403C467.768 538.211 467.726 538.001 467.741 537.79C467.731 537.725 467.742 537.658 467.773 537.599C467.803 537.539 467.852 537.489 467.914 537.455C468.882 536.912 472.547 538.19 475.192 539.229V539.229Z" fill="#4853E5"/>
<path d="M476.368 539.788C476.45 539.782 476.528 539.755 476.593 539.708C476.645 539.672 476.685 539.622 476.706 539.565C476.728 539.508 476.73 539.447 476.714 539.388C476.714 539.133 475.504 532.996 471.839 533.38C470.87 533.476 470.594 533.939 470.542 534.291C470.283 535.889 474.242 538.989 476.213 539.756L476.368 539.788ZM472.15 534.035C474.363 534.035 475.469 537.375 475.85 538.829C473.81 537.774 471.112 535.346 471.268 534.387C471.268 534.387 471.268 534.115 471.925 534.051L472.15 534.035Z" fill="#4853E5"/>
<path d="M482.419 147.367L480.829 148.965L479.342 150.323C478.357 151.218 477.336 152.065 476.316 152.896C474.288 154.579 472.213 156.177 470.092 157.69C465.813 160.834 461.307 163.707 456.607 166.287C454.239 167.582 451.801 168.812 449.329 169.979C446.856 171.145 444.246 172.152 441.618 173.175C436.229 175.162 430.615 176.582 424.882 177.41L423.603 177.585C422.772 177.684 421.934 177.732 421.096 177.729C419.171 177.712 417.265 177.366 415.477 176.706C413.704 176.048 412.079 175.089 410.688 173.878C409.58 172.901 408.615 171.795 407.818 170.586C406.714 168.833 405.882 166.944 405.346 164.977C404.927 163.453 404.62 161.905 404.429 160.343C404.115 157.642 404.028 154.922 404.17 152.209C404.291 149.62 404.516 147.127 404.827 144.682C405.484 139.777 406.418 135.094 407.559 130.3C408.7 125.506 409.996 121.08 411.674 116.446L423.032 118.523C422.617 127.504 422.151 136.708 422.462 145.402C422.518 149.438 422.981 153.461 423.845 157.419C424.015 158.15 424.253 158.866 424.554 159.56C424.796 160.103 425.09 160.439 425.072 160.295C424.972 160.052 424.812 159.833 424.606 159.656C424.135 159.235 423.584 158.899 422.98 158.665C422.359 158.424 421.699 158.278 421.027 158.234C420.716 158.234 420.577 158.234 420.387 158.234H420.577L420.94 158.138C425.036 157.165 429.02 155.827 432.835 154.143C436.827 152.362 440.691 150.344 444.401 148.102C448.153 145.801 451.853 143.308 455.414 140.672C457.143 139.361 458.958 137.987 460.601 136.597L463.125 134.487L464.335 133.449L465.39 132.522L482.419 147.367Z" fill="#FF8B7B"/>
<path d="M491.565 141.726C490.977 126.657 477.596 121.416 460.825 131.691C453.432 136.023 446.315 140.745 439.508 145.833L450.348 178.017C450.348 178.017 471.095 171.928 483.093 159.975C491.167 151.858 491.772 146.856 491.565 141.726Z" fill="#263238"/>
<path opacity="0.2" d="M471.147 148.15C471.147 148.15 461.137 161.382 457.593 175.444C462.514 173.504 467.256 171.195 471.77 168.541L471.147 148.15Z" fill="black"/>
<path d="M422.462 123.301L428.271 111.172L411.829 106.73C411.829 106.73 409.011 112.531 410.619 122.486L422.462 123.301Z" fill="#FF8B7B"/>
<path d="M430.017 96.9502L415.719 98.5323L411.829 106.73L428.271 111.172L430.017 96.9502Z" fill="#FF8B7B"/>
<path d="M471.251 250.965C471.251 250.965 460.636 333.199 459.46 377.208C458.25 422.926 467.949 515.147 467.949 515.147L495.801 514.604C495.801 514.604 499.155 415.879 503.201 370.64C507.592 321.325 518.657 250.071 518.657 250.071L471.251 250.965Z" fill="#4853E5"/>
<path opacity="0.6" d="M471.251 250.965C471.251 250.965 460.636 333.199 459.46 377.208C458.25 422.926 467.949 515.147 467.949 515.147L495.801 514.604C495.801 514.604 499.155 415.879 503.201 370.64C507.592 321.325 518.657 250.071 518.657 250.071L471.251 250.965Z" fill="white"/>
<path opacity="0.2" d="M504.428 274.248C491.98 299.609 495.317 356.258 502.388 380.547C502.648 377.016 502.924 373.676 503.201 370.592C506.088 338.088 511.845 296.077 515.493 271.196C512.105 266.658 508.318 266.306 504.428 274.248Z" fill="black"/>
<path d="M499.224 515.706L466.479 516.313L464.059 506.262L498.826 506.182L499.224 515.706Z" fill="#4853E5"/>
<path d="M562.121 539.229L546.699 539.357L542.498 506.374L557.92 506.246L562.121 539.229Z" fill="#FF8B7B"/>
<path d="M546.665 537.711L563.521 537.567C563.831 537.573 564.131 537.669 564.379 537.841C564.627 538.013 564.811 538.252 564.904 538.526L568.984 551.166C569.089 551.46 569.116 551.773 569.063 552.078C569.011 552.384 568.88 552.674 568.683 552.924C568.485 553.174 568.226 553.376 567.927 553.515C567.627 553.654 567.297 553.725 566.962 553.723C560.876 553.723 552.076 553.419 544.486 553.483C535.565 553.483 531.571 554.058 521.112 554.154C514.784 554.154 512.467 548.305 515.147 547.762C527.007 545.221 533.145 544.886 543.103 538.861C544.143 538.164 545.381 537.764 546.665 537.711V537.711Z" fill="#263238"/>
<path opacity="0.2" d="M542.498 506.39L544.659 523.392L560.098 523.265L557.937 506.262L542.498 506.39Z" fill="black"/>
<path d="M540.303 540.251C541.967 540.222 543.624 540.034 545.247 539.692C545.322 539.681 545.391 539.646 545.441 539.594C545.491 539.542 545.521 539.475 545.524 539.404C545.535 539.337 545.522 539.268 545.488 539.208C545.454 539.147 545.4 539.099 545.334 539.069C544.59 538.733 538.107 535.873 536.343 536.88C536.176 536.974 536.04 537.109 535.949 537.269C535.857 537.429 535.815 537.61 535.825 537.79C535.821 538.096 535.892 538.399 536.033 538.675C536.174 538.952 536.38 539.196 536.637 539.388C537.726 540.035 539.012 540.338 540.303 540.251ZM544.002 539.229C540.666 539.772 538.124 539.66 537.087 538.893C536.908 538.762 536.765 538.594 536.669 538.402C536.573 538.211 536.527 538.001 536.534 537.79C536.523 537.725 536.534 537.658 536.565 537.599C536.596 537.539 536.645 537.489 536.706 537.455C537.675 536.912 541.305 538.19 544.002 539.229V539.229Z" fill="#4853E5"/>
<path d="M545.161 539.788C545.214 539.786 545.266 539.774 545.314 539.753C545.362 539.731 545.404 539.7 545.438 539.663C545.472 539.625 545.498 539.581 545.512 539.534C545.527 539.487 545.531 539.437 545.524 539.388C545.524 539.133 544.314 532.996 540.648 533.38C539.68 533.476 539.403 533.939 539.334 534.291C539.092 535.889 543.051 538.989 545.022 539.756L545.161 539.788ZM540.959 534.035C543.155 534.035 544.279 537.375 544.659 538.829C542.619 537.774 539.905 535.346 540.06 534.387C540.06 534.387 540.061 534.115 540.717 534.051L540.959 534.035Z" fill="#4853E5"/>
<path d="M498.429 250.422C498.429 250.422 506.122 338.903 511.741 382.561C517.567 427.976 536.758 515.099 536.758 515.099L564.61 514.556C564.61 514.556 556.969 415.639 554.012 370.32C550.779 320.862 549.949 249.336 549.949 249.336L498.429 250.422Z" fill="#4853E5"/>
<path opacity="0.6" d="M498.429 250.422C498.429 250.422 506.122 338.903 511.741 382.561C517.567 427.976 536.758 515.099 536.758 515.099L564.61 514.556C564.61 514.556 556.969 415.639 554.012 370.32C550.779 320.862 549.949 249.336 549.949 249.336L498.429 250.422Z" fill="white"/>
<path d="M568.034 515.706L535.271 516.313L532.868 506.262L567.636 506.182L568.034 515.706Z" fill="#4853E5"/>
<path d="M469.332 127.744C469.332 127.744 457.938 166.831 471.251 250.965C496.112 250.47 537.865 249.575 549.949 249.367C550.261 237.654 540.907 180.222 551.851 124.851C543.978 123.595 536.015 122.879 528.027 122.71C516.335 122.315 504.628 122.55 492.965 123.413C484.978 124.287 477.076 125.735 469.332 127.744V127.744Z" fill="#263238"/>
<path opacity="0.2" d="M547.079 164.258L534.199 154.398C535.046 162.101 542.584 180.973 546.561 190.529C546.492 182.156 546.578 173.319 547.079 164.258Z" fill="black"/>
<path d="M501.005 150.403L486.949 176.115C486.652 176.655 486.548 177.268 486.653 177.866C486.757 178.464 487.064 179.016 487.529 179.442C487.994 179.869 488.594 180.148 489.241 180.239C489.889 180.33 490.552 180.229 491.133 179.95L500.313 175.284C500.813 175.036 501.377 174.923 501.942 174.956C502.508 174.99 503.052 175.17 503.512 175.476L512.554 181.5C513.073 181.85 513.7 182.035 514.343 182.029C514.985 182.024 515.608 181.827 516.12 181.468C516.632 181.11 517.005 180.609 517.185 180.039C517.365 179.469 517.341 178.861 517.118 178.304L506.555 150.851C506.371 150.329 506.025 149.868 505.56 149.526C505.095 149.184 504.532 148.977 503.94 148.929C503.348 148.881 502.754 148.996 502.232 149.258C501.711 149.52 501.284 149.918 501.005 150.403Z" fill="white"/>
<path d="M523.705 86.2117C521.734 96.6946 519.971 115.839 528.027 122.63C528.027 122.63 525.676 132.122 504.221 135.414C489.802 131.131 492.966 123.397 492.966 123.397C505.483 120.361 504.947 111.748 502.578 103.694L523.705 86.2117Z" fill="#FF8B7B"/>
<path opacity="0.2" d="M515.095 93.3228L502.578 103.614C503.161 105.49 503.566 107.41 503.788 109.351C508.595 108.616 515.078 103.598 515.476 98.9477C515.721 97.067 515.592 95.1607 515.095 93.3228V93.3228Z" fill="black"/>
<path d="M530.569 73.3158C526.402 86.9308 524.725 95.0966 515.527 100.674C501.696 109.047 484.736 99.0756 484.408 84.5498C484.096 71.5101 490.943 51.4232 506.883 48.8664C510.384 48.2923 513.986 48.554 517.347 49.6268C520.709 50.6995 523.718 52.5477 526.09 54.9963C528.462 57.4449 530.119 60.4128 530.902 63.6187C531.686 66.8246 531.571 70.1624 530.569 73.3158V73.3158Z" fill="#FF8B7B"/>
<path d="M521.7 81.6574C519.763 77.3108 518.363 62.9927 526.437 59.4771C534.511 55.9615 542.896 64.5428 540.769 68.6017C537.501 74.8978 526.195 91.7248 521.7 81.6574Z" fill="#263238"/>
<path d="M526.523 64.5268C524.535 59.7328 500.832 57.0162 497.513 51.8547C493.571 45.7184 509.736 44.9833 520.852 48.0994C530.621 50.8479 537.138 53.5006 535.997 60.2122C535.358 64.0155 526.523 64.5268 526.523 64.5268Z" fill="#263238"/>
<path d="M531.675 59.589C531.675 59.589 536.862 60.8994 539.697 57.3838C538.798 60.8674 534.39 64.383 531.675 59.589Z" fill="#263238"/>
<path d="M507.938 44.8075C500.815 39.6939 491.116 45.7024 492.032 52.3661C492.948 59.0297 516.963 64.0954 516.963 64.0954C516.963 64.0954 517.395 51.599 507.938 44.8075Z" fill="#263238"/>
<path d="M492.049 52.398C493.139 57.0642 496.821 60.7236 504.272 63.4402C499.96 60.4925 496.692 56.4266 494.885 51.7588L492.049 52.398Z" fill="#263238"/>
<path d="M507.004 72.6287C506.745 73.7633 505.898 74.5463 505.103 74.3865C504.307 74.2267 503.875 73.172 504.134 72.0534C504.394 70.9348 505.258 70.1518 506.053 70.3116C506.849 70.4714 507.281 71.574 507.004 72.6287Z" fill="#263238"/>
<path d="M493.277 69.8801C493 70.9987 492.153 71.7817 491.358 71.6219C490.563 71.4621 490.13 70.4234 490.39 69.3048C490.649 68.1862 491.514 67.4032 492.309 67.5471C493.104 67.6909 493.536 68.7615 493.277 69.8801Z" fill="#263238"/>
<path d="M497.512 71.3183C495.255 74.4618 492.538 77.3013 489.438 79.7558C491.167 82.0409 495.023 81.929 495.023 81.929L497.512 71.3183Z" fill="#FF5652"/>
<path d="M497.824 85.7483C499.447 86.121 501.144 86.1252 502.77 85.7607C504.395 85.3962 505.901 84.6737 507.16 83.6549C507.194 83.6236 507.221 83.5863 507.24 83.5452C507.259 83.504 507.268 83.4598 507.268 83.4152C507.268 83.3705 507.259 83.3263 507.24 83.2852C507.221 83.244 507.194 83.2067 507.16 83.1755C507.089 83.1148 506.996 83.0811 506.9 83.0811C506.804 83.0811 506.711 83.1148 506.641 83.1755C505.46 84.0938 504.064 84.744 502.563 85.0742C501.062 85.4044 499.498 85.4054 497.996 85.0771C497.9 85.058 497.8 85.0751 497.717 85.1245C497.634 85.174 497.576 85.2518 497.556 85.3408C497.535 85.4298 497.553 85.5227 497.607 85.5991C497.66 85.6755 497.745 85.7292 497.841 85.7483H497.824Z" fill="#263238"/>
<path d="M512.104 69.3688C512.237 69.3933 512.374 69.3839 512.501 69.3416C512.629 69.2992 512.741 69.2256 512.827 69.1286C512.912 69.0316 512.967 68.9149 512.986 68.7911C513.005 68.6673 512.987 68.541 512.934 68.4259C512.467 67.4417 511.753 66.5746 510.851 65.8965C509.949 65.2184 508.885 64.7488 507.747 64.5268C507.555 64.5038 507.361 64.5511 507.206 64.6586C507.051 64.766 506.947 64.9252 506.917 65.1021C506.903 65.1892 506.907 65.2781 506.929 65.3638C506.951 65.4495 506.992 65.5303 507.048 65.6015C507.104 65.6727 507.175 65.733 507.257 65.7789C507.338 65.8249 507.428 65.8555 507.523 65.8691V65.8691C508.42 66.0513 509.256 66.4293 509.963 66.9714C510.67 67.5134 511.226 68.2039 511.585 68.9852C511.634 69.082 511.706 69.167 511.796 69.2335C511.886 69.3001 511.991 69.3464 512.104 69.3688V69.3688Z" fill="#263238"/>
<path d="M488.263 64.3031C488.399 64.3378 488.542 64.3334 488.675 64.2906C488.808 64.2478 488.924 64.1685 489.006 64.0634C489.554 63.3846 490.266 62.8342 491.086 62.4567C491.906 62.0792 492.81 61.8851 493.726 61.8901C493.919 61.9071 494.111 61.8526 494.26 61.7387C494.409 61.6249 494.503 61.4609 494.522 61.2829C494.54 61.1049 494.481 60.9274 494.358 60.7896C494.235 60.6517 494.057 60.5648 493.865 60.5478C492.705 60.516 491.554 60.7435 490.509 61.2108C489.465 61.6782 488.558 62.3717 487.865 63.2324C487.804 63.3008 487.758 63.38 487.731 63.4651C487.704 63.5503 487.696 63.6397 487.707 63.7278C487.718 63.816 487.749 63.9012 487.797 63.9781C487.845 64.055 487.909 64.1221 487.986 64.1753C488.065 64.2393 488.16 64.2834 488.263 64.3031V64.3031Z" fill="#263238"/>
<path d="M555.62 135.75C558.767 140.831 561.395 145.753 564.127 150.819C566.858 155.884 569.313 160.982 571.647 166.192C573.981 171.401 576.246 176.69 578.217 182.172C580.266 187.638 581.998 193.201 583.404 198.839L584.458 203.201C584.919 205.25 585.117 207.342 585.046 209.433C584.899 213.32 583.967 217.146 582.297 220.715C579.362 226.729 575.186 232.157 570.005 236.695C565.383 240.82 560.346 244.528 554.963 247.769C552.353 249.367 549.656 250.838 546.942 252.244C544.227 253.65 541.53 254.945 538.505 256.175L532.765 246.891C534.857 245.293 537.156 243.695 539.3 241.969C541.444 240.243 543.536 238.485 545.61 236.727C549.616 233.292 553.333 229.579 556.727 225.621C559.745 222.227 562.087 218.363 563.643 214.211C564.178 212.665 564.389 211.038 564.265 209.417C564.214 208.766 564.081 208.122 563.867 207.5L562.692 203.92C559.198 193.992 555.041 184.273 550.244 174.821C547.875 170.027 545.351 165.233 542.827 160.439C540.303 155.645 537.64 150.851 535.064 146.296L555.62 135.75Z" fill="#FF8B7B"/>
<path d="M552.439 124.931C566.858 127.808 576.885 162.58 576.885 162.58L551.108 184.201C542.912 175.773 536.465 166.023 532.09 155.437C525.261 138.035 537.017 121.831 552.439 124.931Z" fill="#263238"/>
<path d="M535.893 245.245L519.313 245.404L529.687 260.857C529.687 260.857 541.495 258.156 542.55 252.675L535.893 245.245Z" fill="#FF8B7B"/>
<path d="M508.992 254.529L518.138 266.93L529.6 260.857L519.314 245.404L508.992 254.529Z" fill="#FF8B7B"/>
<path d="M535.098 85.7802C533.256 88.9129 530.149 91.2451 526.454 92.2681C521.544 93.5944 519.037 89.5515 520.351 85.2529C521.544 81.3857 525.538 76.0324 530.448 76.5917C535.358 77.151 537.294 81.929 535.098 85.7802Z" fill="#FF8B7B"/>
<path d="M388.149 350.18L369.716 351.416L369.841 353.01L388.274 351.773L388.149 350.18Z" fill="#4853E5"/>
<path d="M404.713 349.075L395.66 349.683L395.785 351.276L404.838 350.669L404.713 349.075Z" fill="#4853E5"/>
<path d="M484.252 161.493L179 181.836C172.647 182.294 166.746 185.049 162.577 189.504C158.408 193.959 156.308 199.753 156.732 205.63L167.106 338.616C167.597 344.497 170.581 349.96 175.408 353.818C180.236 357.676 186.516 359.615 192.883 359.214L210.172 358.063C211.428 357.98 212.669 358.36 213.622 359.121C214.575 359.882 215.162 360.962 215.255 362.122L217.191 386.763C217.223 387.241 217.408 387.698 217.723 388.077C218.038 388.457 218.469 388.74 218.96 388.891C219.45 389.042 219.979 389.054 220.477 388.926C220.975 388.797 221.42 388.534 221.756 388.17L250.697 357.248C251.914 355.953 253.635 355.155 255.486 355.027L498.083 338.871C504.439 338.417 510.345 335.664 514.517 331.209C518.69 326.753 520.792 320.957 520.368 315.077L509.995 182.092C509.503 176.217 506.524 170.758 501.704 166.901C496.884 163.045 490.613 161.101 484.252 161.493V161.493Z" fill="#4853E5"/>
<path opacity="0.2" d="M179 181.836C172.647 182.294 166.746 185.049 162.577 189.504C158.408 193.959 156.308 199.753 156.732 205.63L167.106 338.616C167.597 344.497 170.581 349.96 175.408 353.818C180.236 357.676 186.516 359.615 192.883 359.214L195.425 359.038C199.647 358.756 203.651 357.194 206.815 354.593C209.978 351.993 212.125 348.5 212.921 344.656L247.689 177.25L179 181.836Z" fill="black"/>
<path d="M174.782 138.051C174.704 140.39 174.837 142.731 175.179 145.05C159.513 149.886 142.806 151.109 126.511 148.614C127.293 145.88 127.769 143.08 127.929 140.256C127.384 143.099 126.314 145.834 124.765 148.342C121.688 147.799 119.959 147.335 119.959 147.335C119.959 147.335 123.105 131.611 117.435 120.169C111.764 108.728 114.599 102.335 118.887 100.53C126.84 77.934 156.732 81.4976 166.846 90.6701C179.674 102.304 179.744 135.079 182.026 142.573C180.141 143.324 178.291 144.011 176.441 144.619C175.515 142.525 174.955 140.308 174.782 138.051V138.051Z" fill="#263238"/>
<path d="M187.143 173.223L188.699 177.777C189.27 179.375 189.84 180.973 190.428 182.491C191.586 185.687 192.797 188.883 194.093 191.951C195.39 195.019 196.635 198.247 197.983 201.38L199.989 206.174L200.49 207.356L200.611 207.628C200.397 207.455 200.151 207.319 199.885 207.228C199.505 207.1 199.349 207.228 199.591 207.228C200.007 207.227 200.421 207.167 200.819 207.052C202.17 206.656 203.47 206.12 204.691 205.454C207.64 203.866 210.459 202.083 213.128 200.117C215.929 198.104 218.678 195.946 221.375 193.725C224.072 191.504 226.786 189.187 229.397 186.918L234.705 191.072C232.492 194.013 230.158 196.697 227.789 199.43C225.421 202.163 222.758 204.719 220.026 207.26C217.215 209.913 214.154 212.33 210.881 214.483C209.008 215.696 206.996 216.714 204.881 217.519C203.539 218.017 202.133 218.35 200.698 218.51C198.749 218.734 196.771 218.487 194.958 217.791C192.981 217.012 191.297 215.712 190.117 214.052C189.857 213.684 189.615 213.317 189.425 212.981L188.958 212.118L188.336 210.952C187.523 209.354 186.607 207.756 185.898 206.253C184.325 203.057 182.752 199.861 181.317 196.665C179.882 193.469 178.481 190.178 177.15 186.886C176.528 185.288 175.905 183.546 175.318 181.868C174.73 180.19 174.159 178.544 173.589 176.579L187.143 173.223Z" fill="#FFC3BD"/>
<path d="M183.046 159.033C189.01 160.439 193.177 183.098 193.177 183.098L176.752 193.422C176.752 193.422 161.02 170.554 165.601 164.498C170.373 158.202 174.349 156.987 183.046 159.033Z" fill="#4853E5"/>
<path d="M183.046 159.033C189.01 160.439 193.177 183.098 193.177 183.098L176.752 193.422C176.752 193.422 161.02 170.554 165.601 164.498C170.373 158.202 174.349 156.987 183.046 159.033Z" fill="#4853E5"/>
<path opacity="0.4" d="M183.046 159.033C189.01 160.439 193.177 183.098 193.177 183.098L176.752 193.422C176.752 193.422 161.02 170.554 165.601 164.498C170.373 158.202 174.349 156.987 183.046 159.033Z" fill="white"/>
<path opacity="0.3" d="M182.51 164.098L187.091 186.934L177.859 192.718L182.51 164.098Z" fill="black"/>
<path d="M229.12 187.461L234.601 175.252L241.361 187.461C241.361 187.461 236.969 193.533 231.177 192.047L229.12 187.461Z" fill="#FFC3BD"/>
<path d="M240.635 173.99L249.314 177.218L241.361 187.461L234.583 175.252L240.635 173.99Z" fill="#FFC3BD"/>
<path d="M150.802 540.507H165.273L166.241 509.554H151.77L150.802 540.507Z" fill="#FFC3BD"/>
<path d="M53.7771 500.637L67.0722 505.878L84.482 479.096L71.1696 473.854L53.7771 500.637Z" fill="#FFC3BD"/>
<path d="M69.631 504.057L55.7999 496.195C55.5634 496.054 55.2791 495.999 55.0016 496.04C54.724 496.082 54.4726 496.216 54.2958 496.418L45.9799 505.639C45.773 505.88 45.6244 506.159 45.544 506.458C45.4637 506.757 45.4534 507.068 45.514 507.371C45.5746 507.674 45.7047 507.961 45.8953 508.214C46.086 508.466 46.333 508.678 46.6196 508.835C51.495 511.503 53.9846 512.558 60.0703 516.01C63.8219 518.151 69.0432 521.603 74.2125 524.543C79.3819 527.483 82.8569 522.945 80.9379 521.267C72.5528 513.868 72.7948 510.353 71.2215 505.974C70.9601 505.178 70.3949 504.497 69.631 504.057V504.057Z" fill="#263238"/>
<path d="M165.757 538.957H149.523C149.243 538.954 148.972 539.045 148.759 539.212C148.546 539.38 148.406 539.612 148.364 539.868L146.514 551.757C146.469 552.062 146.496 552.372 146.594 552.667C146.691 552.961 146.856 553.232 147.078 553.462C147.3 553.691 147.574 553.874 147.879 553.996C148.185 554.118 148.515 554.178 148.848 554.17C154.519 554.09 157.251 553.771 164.408 553.771C168.8 553.771 177.894 554.202 183.962 554.202C190.03 554.202 190.342 548.657 187.817 548.146C176.493 545.892 172.033 542.792 168.212 539.836C167.535 539.279 166.663 538.966 165.757 538.957V538.957Z" fill="#263238"/>
<path opacity="0.2" d="M166.224 509.57L165.74 525.518H151.269L151.77 509.57H166.224Z" fill="black"/>
<path opacity="0.2" d="M71.1697 473.87L84.4648 479.096L75.4919 492.903L62.1968 487.661L71.1697 473.87Z" fill="black"/>
<path d="M183.046 159.033C183.046 159.033 189.961 161.27 176.13 239.684H117.348C118.334 217.599 118.368 203.984 106.975 158.649C115.194 157.079 123.526 156.064 131.905 155.613C140.786 155.021 149.701 155.021 158.582 155.613C170.062 156.572 183.046 159.033 183.046 159.033Z" fill="#4853E5"/>
<path opacity="0.4" d="M183.046 159.033C183.046 159.033 189.961 161.27 176.13 239.684H117.348C118.334 217.599 118.368 203.984 106.975 158.649C115.194 157.079 123.526 156.064 131.905 155.613C140.786 155.021 149.701 155.021 158.582 155.613C170.062 156.572 183.046 159.033 183.046 159.033Z" fill="white"/>
<path d="M131.94 155.597C140.821 155.021 149.735 155.021 158.617 155.597C160.052 155.725 161.521 155.869 162.973 156.028C163.578 156.868 163.966 157.825 164.106 158.825C164.247 159.825 164.138 160.842 163.786 161.797C161.902 166.096 155.142 166.591 150.232 166.591C132.061 166.591 128.984 156.779 128.863 156.364L128.69 155.773L131.94 155.597Z" fill="white"/>
<path d="M134.585 127.856C136.314 135.846 137.956 150.323 131.94 155.613C131.94 155.613 134.291 163.603 150.232 163.603C167.762 163.603 158.617 155.613 158.617 155.613C149.039 153.503 149.298 146.936 150.958 140.783L134.585 127.856Z" fill="#FFC3BD"/>
<path d="M136.331 122.215C134.274 128.495 137.127 143.356 141.362 149.109C133.012 144.683 130.194 131.195 130.194 131.195L136.331 122.215Z" fill="#263238"/>
<path opacity="0.2" d="M141.259 133.129L150.958 140.767C150.532 142.199 150.254 143.665 150.128 145.146C146.48 144.651 141.483 140.943 141.068 137.412C140.854 135.985 140.918 134.534 141.259 133.129V133.129Z" fill="black"/>
<path d="M126.667 113.697C130.021 126.593 131.127 132.122 139.53 137.667C152.168 145.993 168.575 139.377 169.457 125.81C170.252 113.601 164.65 94.5692 149.868 91.6289C146.612 90.9642 143.225 91.0799 140.03 91.965C136.835 92.8501 133.938 94.4753 131.613 96.6862C129.289 98.8971 127.614 101.62 126.749 104.598C125.883 107.575 125.855 110.707 126.667 113.697V113.697Z" fill="#FFC3BD"/>
<path d="M176.147 239.684C176.147 239.684 187.541 342.627 186.521 383.376C185.535 425.755 168.731 522.402 168.731 522.402H149.194C149.194 522.402 152.289 428.2 150.56 386.572C148.676 341.189 133.081 239.652 133.081 239.652L176.147 239.684Z" fill="#4853E5"/>
<path opacity="0.4" d="M176.147 239.684C176.147 239.684 187.541 342.627 186.521 383.376C185.535 425.755 168.731 522.402 168.731 522.402H149.194C149.194 522.402 152.289 428.2 150.56 386.572C148.676 341.189 133.081 239.652 133.081 239.652L176.147 239.684Z" fill="black"/>
<path d="M147.569 523.073H170.494L172.188 516.313L146.497 515.482L147.569 523.073Z" fill="#4853E5"/>
<path opacity="0.2" d="M150.819 265.3C165.238 292.114 153.706 341.029 148.606 359.23C145.996 331.904 141.587 298.506 138.146 273.945C140.325 260.138 144.163 252.931 150.819 265.3Z" fill="black"/>
<path d="M160.639 239.684C160.639 239.684 147.327 346.75 137.282 381.059C125.37 421.856 80.0215 491.321 80.0215 491.321L61.8855 484.194C61.8855 484.194 89.9453 405.316 99.0738 383.823C118.524 337.961 101.875 269.614 117.417 239.684H160.639Z" fill="#4853E5"/>
<path opacity="0.4" d="M160.639 239.684C160.639 239.684 147.327 346.75 137.282 381.059C125.37 421.856 80.0215 491.321 80.0215 491.321L61.8855 484.194C61.8855 484.194 89.9453 405.316 99.0738 383.823C118.524 337.961 101.875 269.614 117.417 239.684H160.639Z" fill="black"/>
<path d="M59.3787 484.242L81.8887 493.094L87.3001 487.501L61.3323 475.98L59.3787 484.242Z" fill="#4853E5"/>
<path d="M148.848 113.873C149.056 114.928 149.817 115.695 150.577 115.567C151.338 115.439 151.77 114.48 151.563 113.426C151.355 112.371 150.595 111.604 149.834 111.716C149.073 111.828 148.554 112.802 148.848 113.873Z" fill="#263238"/>
<path d="M161.746 111.764C161.936 112.818 162.714 113.585 163.475 113.458C164.235 113.33 164.685 112.371 164.478 111.316C164.27 110.262 163.509 109.495 162.749 109.606C161.988 109.718 161.538 110.693 161.746 111.764Z" fill="#263238"/>
<path d="M162.42 109.734L165.031 108.536C165.031 108.536 163.993 110.757 162.42 109.734Z" fill="#263238"/>
<path d="M158.651 114.145C160.135 116.4 161.951 118.454 164.045 120.249C163.532 120.729 162.912 121.101 162.229 121.338C161.545 121.575 160.814 121.673 160.086 121.623L158.651 114.145Z" fill="#ED847E"/>
<path d="M154.882 126.625C155.537 126.624 156.191 126.571 156.836 126.465C156.885 126.463 156.934 126.452 156.978 126.431C157.022 126.411 157.061 126.382 157.091 126.346C157.122 126.31 157.145 126.269 157.157 126.225C157.169 126.181 157.171 126.134 157.162 126.089C157.153 126.045 157.134 126.002 157.106 125.964C157.078 125.927 157.042 125.895 156.999 125.872C156.957 125.848 156.91 125.833 156.861 125.828C156.811 125.823 156.762 125.828 156.715 125.842C155.291 126.104 153.82 126.051 152.423 125.687C151.026 125.324 149.742 124.659 148.675 123.749C148.611 123.69 148.524 123.657 148.433 123.657C148.343 123.657 148.256 123.69 148.191 123.749C148.158 123.777 148.131 123.812 148.113 123.85C148.094 123.889 148.085 123.93 148.085 123.972C148.085 124.014 148.094 124.056 148.113 124.095C148.131 124.133 148.158 124.168 148.191 124.196C149.996 125.778 152.395 126.649 154.882 126.625Z" fill="#263238"/>
<path d="M131.56 106.139C131.938 109.537 132.515 112.914 133.288 116.254C133.288 116.254 141.933 106.139 143.368 100.722C143.025 102.854 142.355 104.931 141.38 106.89C141.38 106.89 153.015 104.541 154.156 97.4456C154.136 100.622 153.754 103.788 153.015 106.89C153.015 106.89 164.114 102.863 163.094 96.0554C162.074 89.2479 145.028 86.6112 137.161 88.9123C129.295 91.2134 121.601 98.6761 123.918 108.935C126.235 119.194 130.678 123.046 130.678 123.046C130.678 123.046 127.479 112.707 131.56 106.139Z" fill="#263238"/>
<path d="M126.062 123.413C127.129 125.78 129.168 127.659 131.733 128.639C135.19 129.917 137.248 127.184 136.643 124.02C136.107 121.16 133.669 117.069 130.09 117.133C129.307 117.165 128.545 117.377 127.873 117.749C127.2 118.122 126.639 118.643 126.239 119.266C125.839 119.89 125.614 120.595 125.583 121.319C125.552 122.043 125.716 122.763 126.062 123.413V123.413Z" fill="#FFC3BD"/>
<path d="M133.652 101.217C131.923 107.609 135.519 122.31 140.048 127.856C131.404 123.813 127.946 110.453 127.946 110.453L133.652 101.217Z" fill="#263238"/>
<path d="M144.111 110.23C144.2 110.205 144.283 110.164 144.354 110.109C144.425 110.054 144.484 109.986 144.526 109.91C144.891 109.189 145.435 108.558 146.114 108.07C146.793 107.581 147.588 107.248 148.433 107.098C148.612 107.074 148.775 106.988 148.887 106.857C148.999 106.726 149.054 106.561 149.039 106.394C149.03 106.311 149.003 106.23 148.96 106.156C148.917 106.082 148.858 106.017 148.787 105.965C148.716 105.913 148.634 105.874 148.547 105.852C148.459 105.83 148.368 105.824 148.278 105.835C147.205 106.007 146.193 106.415 145.327 107.024C144.46 107.633 143.765 108.425 143.299 109.335C143.24 109.446 143.217 109.57 143.234 109.693C143.25 109.816 143.304 109.932 143.39 110.026C143.476 110.121 143.59 110.191 143.718 110.227C143.846 110.263 143.983 110.264 144.111 110.23V110.23Z" fill="#263238"/>
<path d="M166.466 105.276C166.552 105.279 166.639 105.265 166.72 105.235C166.8 105.205 166.873 105.159 166.932 105.1C167.059 104.981 167.13 104.82 167.13 104.653C167.13 104.485 167.059 104.325 166.932 104.205C166.195 103.468 165.28 102.901 164.262 102.551C163.244 102.201 162.151 102.078 161.071 102.192C160.982 102.207 160.896 102.239 160.819 102.285C160.743 102.331 160.677 102.391 160.625 102.461C160.574 102.53 160.538 102.609 160.52 102.692C160.501 102.774 160.501 102.86 160.518 102.943C160.556 103.104 160.66 103.246 160.808 103.339C160.956 103.431 161.137 103.467 161.313 103.438C162.165 103.35 163.026 103.449 163.828 103.727C164.63 104.004 165.35 104.453 165.93 105.036C165.994 105.11 166.076 105.171 166.168 105.212C166.261 105.253 166.363 105.275 166.466 105.276V105.276Z" fill="#263238"/>
<path d="M114.15 177.617C111.746 184.632 109.447 191.999 107.493 199.254C105.527 206.416 104.089 213.693 103.188 221.035L103.05 222.377C103.05 222.809 103.05 222.905 103.05 223.288C103.069 224.042 103.133 224.794 103.24 225.541C103.461 227.292 103.778 229.03 104.191 230.751C105.004 234.314 105.92 237.99 107.096 241.633C108.271 245.277 109.274 248.984 110.45 252.659L113.908 263.686L107.493 266.13C103.552 259.163 100.128 252.068 96.9299 244.749C95.3912 241.074 93.8871 237.366 92.6423 233.451C92.0199 231.502 91.4321 229.504 90.9134 227.331C90.6672 226.18 90.494 225.017 90.3948 223.847C90.3948 223.256 90.3948 222.377 90.3948 221.85V220.252C90.5413 216.18 90.9454 212.119 91.605 208.091C92.1755 204.096 93.0227 200.197 93.939 196.314C95.7379 188.537 98.0473 180.868 100.855 173.351L114.15 177.617Z" fill="#FFC3BD"/>
<path d="M107.009 158.649C101.131 160.247 94.0601 179.024 94.0601 179.024L116.881 194.109C116.881 194.109 125.215 178.48 122.742 171.449C120.166 164.13 113.735 156.763 107.009 158.649Z" fill="#4853E5"/>
<path opacity="0.4" d="M107.009 158.649C101.131 160.247 94.0601 179.024 94.0601 179.024L116.881 194.109C116.881 194.109 125.215 178.48 122.742 171.449C120.166 164.13 113.735 156.763 107.009 158.649Z" fill="white"/>
<path d="M75.4745 509.138C75.7556 509.047 76.0115 508.899 76.2237 508.706C76.4359 508.513 76.5992 508.278 76.702 508.02C76.802 507.854 76.8544 507.667 76.8544 507.476C76.8544 507.286 76.802 507.099 76.702 506.933C75.6647 505.527 70.4262 505.639 69.7865 505.655C69.7202 505.656 69.6556 505.674 69.6004 505.708C69.5453 505.742 69.5018 505.79 69.4753 505.846C69.4417 505.897 69.4238 505.955 69.4238 506.014C69.4238 506.074 69.4417 506.132 69.4753 506.182C70.8411 507.444 73.3999 509.506 75.1979 509.186L75.4745 509.138ZM70.6164 506.23C72.7083 506.23 75.5091 506.502 76.0624 507.253C76.1096 507.325 76.1346 507.408 76.1346 507.492C76.1346 507.577 76.1096 507.66 76.0624 507.732C75.9859 507.925 75.8591 508.097 75.6932 508.234C75.5273 508.371 75.3275 508.467 75.1115 508.515C74.1606 508.739 72.5009 507.828 70.6164 506.23Z" fill="#4853E5"/>
<path d="M72.1551 505.894C73.7457 505.431 75.44 504.616 75.803 503.705C75.8932 503.468 75.8945 503.21 75.8067 502.972C75.7189 502.735 75.5471 502.531 75.319 502.395C75.1176 502.24 74.8806 502.129 74.626 502.071C74.3714 502.012 74.1058 502.009 73.8494 502.059C71.792 502.395 69.5791 505.655 69.4926 505.799C69.4623 505.847 69.4463 505.902 69.4463 505.958C69.4463 506.014 69.4623 506.07 69.4926 506.118C69.5237 506.165 69.5668 506.204 69.618 506.232C69.6693 506.26 69.7271 506.276 69.7865 506.278C70.592 506.257 71.3898 506.128 72.1551 505.894ZM73.7457 502.698H73.9704C74.133 502.667 74.301 502.67 74.4624 502.705C74.6239 502.741 74.7747 502.81 74.904 502.906C75.2498 503.162 75.2152 503.354 75.1633 503.497C74.8176 504.376 72.1897 505.431 70.4435 505.639C71.2379 504.41 72.3795 503.405 73.7457 502.73V502.698Z" fill="#4853E5"/>
<path d="M171.186 541.29C172.404 541.383 173.621 541.096 174.643 540.475C174.881 540.276 175.062 540.027 175.17 539.748C175.279 539.469 175.312 539.17 175.266 538.877C175.252 538.704 175.191 538.537 175.088 538.391C174.985 538.246 174.844 538.127 174.678 538.046C172.949 537.151 167.157 539.868 166.5 540.171C166.437 540.196 166.383 540.236 166.344 540.289C166.306 540.342 166.286 540.404 166.286 540.467C166.286 540.53 166.306 540.592 166.344 540.645C166.383 540.698 166.437 540.739 166.5 540.763C168.039 541.084 169.609 541.261 171.186 541.29V541.29ZM173.762 538.525C173.982 538.513 174.202 538.551 174.401 538.637C174.469 538.672 174.526 538.723 174.566 538.785C174.605 538.846 174.626 538.917 174.626 538.989C174.658 539.173 174.64 539.361 174.574 539.537C174.508 539.713 174.395 539.87 174.246 539.996C173.364 540.731 170.978 540.859 167.78 540.363C169.647 539.442 171.669 538.821 173.762 538.525V538.525Z" fill="#4853E5"/>
<path d="M166.708 540.827H166.846C168.575 540.108 172.033 537.231 171.722 535.713C171.722 535.346 171.376 534.914 170.425 534.818C170.085 534.783 169.74 534.813 169.413 534.907C169.086 535 168.783 535.155 168.523 535.362C166.794 536.768 166.379 540.363 166.362 540.507C166.36 540.563 166.373 540.619 166.4 540.669C166.427 540.72 166.468 540.763 166.518 540.795C166.574 540.828 166.642 540.839 166.708 540.827V540.827ZM170.166 535.409H170.373C170.995 535.409 171.047 535.713 171.047 535.777C171.22 536.688 168.904 538.973 167.14 539.948C167.278 538.429 167.925 536.988 168.99 535.825C169.307 535.559 169.72 535.411 170.148 535.409H170.166Z" fill="#4853E5"/>
<path d="M116.536 236.504L115.049 241.298C114.841 241.665 115.325 242.049 116 242.049H176.511C177.046 242.049 177.479 241.809 177.513 241.505L178.049 236.711C178.049 236.376 177.617 236.088 177.046 236.088H117.504C117.317 236.075 117.13 236.106 116.961 236.179C116.791 236.251 116.645 236.363 116.536 236.504V236.504Z" fill="#263238"/>
<path d="M124.523 242.64H122.915C122.604 242.64 122.362 242.496 122.379 242.304L123.123 235.912C123.123 235.737 123.434 235.577 123.745 235.577H125.336C125.664 235.577 125.889 235.737 125.872 235.912L125.128 242.304C125.128 242.56 124.852 242.64 124.523 242.64Z" fill="#4853E5"/>
<path opacity="0.4" d="M124.523 242.64H122.915C122.604 242.64 122.362 242.496 122.379 242.304L123.123 235.912C123.123 235.737 123.434 235.577 123.745 235.577H125.336C125.664 235.577 125.889 235.737 125.872 235.912L125.128 242.304C125.128 242.56 124.852 242.64 124.523 242.64Z" fill="black"/>
<path d="M171.946 242.64H170.356C170.044 242.64 169.802 242.496 169.82 242.304L170.58 235.912C170.58 235.737 170.874 235.577 171.186 235.577H172.776C173.105 235.577 173.347 235.737 173.312 235.912L172.569 242.304C172.551 242.56 172.275 242.64 171.946 242.64Z" fill="#4853E5"/>
<path opacity="0.4" d="M171.946 242.64H170.356C170.044 242.64 169.802 242.496 169.82 242.304L170.58 235.912C170.58 235.737 170.874 235.577 171.186 235.577H172.776C173.105 235.577 173.347 235.737 173.312 235.912L172.569 242.304C172.551 242.56 172.275 242.64 171.946 242.64Z" fill="black"/>
<path d="M148.243 242.64H146.653C146.324 242.64 146.082 242.496 146.117 242.304L146.86 235.912C146.86 235.737 147.154 235.577 147.483 235.577H149.073C149.384 235.577 149.626 235.737 149.609 235.912L148.866 242.304C148.848 242.56 148.555 242.64 148.243 242.64Z" fill="#4853E5"/>
<path opacity="0.4" d="M148.243 242.64H146.653C146.324 242.64 146.082 242.496 146.117 242.304L146.86 235.912C146.86 235.737 147.154 235.577 147.483 235.577H149.073C149.384 235.577 149.626 235.737 149.609 235.912L148.866 242.304C148.848 242.56 148.555 242.64 148.243 242.64Z" fill="black"/>
<path d="M149.436 111.828L152.047 110.645C152.047 110.645 151.01 112.866 149.436 111.828Z" fill="#263238"/>
<path d="M113.424 261.88L125.82 270.669L111.453 273.593C111.453 273.593 105.35 267.201 107.459 261.928L113.424 261.88Z" fill="#FFC3BD"/>
<path d="M128.862 281.551L116.691 283.389L110.052 271.851L125.82 270.669L128.862 281.551Z" fill="#FFC3BD"/>
<path d="M225.197 237.752C226.848 238 228.217 238.732 229.302 239.949C230.386 241.139 230.992 242.545 231.12 244.166C231.304 246.506 230.626 248.416 229.085 249.898C227.568 251.352 225.346 252.167 222.418 252.343L209.361 253.13L207.152 225.137L219.769 224.377C222.617 224.205 224.891 224.723 226.591 225.929C228.318 227.134 229.269 228.853 229.445 231.086C229.575 232.734 229.244 234.13 228.452 235.272C227.686 236.414 226.601 237.24 225.197 237.752ZM214.873 236.051L219.345 235.781C220.463 235.714 221.296 235.423 221.844 234.909C222.416 234.367 222.665 233.618 222.589 232.661C222.514 231.704 222.15 230.991 221.498 230.523C220.872 230.053 220 229.852 218.882 229.919L214.411 230.189L214.873 236.051ZM220.786 246.913C221.93 246.844 222.789 246.538 223.361 245.996C223.958 245.426 224.217 244.649 224.14 243.666C224.062 242.682 223.669 241.931 222.959 241.413C222.276 240.893 221.362 240.668 220.218 240.737L215.267 241.035L215.755 247.216L220.786 246.913ZM255.776 238.794C255.827 239.432 255.839 240.099 255.814 240.795L240.362 241.726C240.577 243.102 241.101 244.139 241.931 244.837C242.786 245.507 243.786 245.807 244.931 245.738C246.635 245.635 247.762 244.846 248.315 243.371L255.581 242.933C255.324 244.417 254.749 245.774 253.857 247.003C252.991 248.231 251.852 249.221 250.44 249.973C249.029 250.726 247.418 251.157 245.608 251.266C243.425 251.398 241.445 251.05 239.668 250.222C237.891 249.394 236.456 248.145 235.361 246.475C234.266 244.805 233.628 242.813 233.445 240.501C233.263 238.188 233.569 236.139 234.364 234.355C235.186 232.569 236.412 231.16 238.042 230.127C239.672 229.094 241.592 228.511 243.801 228.378C245.957 228.248 247.91 228.584 249.658 229.387C251.406 230.19 252.812 231.4 253.876 233.019C254.967 234.636 255.6 236.561 255.776 238.794ZM248.647 237.421C248.555 236.251 248.082 235.345 247.229 234.702C246.376 234.059 245.35 233.773 244.153 233.845C243.008 233.914 242.063 234.305 241.317 235.018C240.597 235.729 240.193 236.702 240.103 237.936L248.647 237.421ZM286.938 225.858C289.706 225.691 291.968 226.396 293.724 227.973C295.507 229.549 296.515 231.825 296.75 234.802L297.777 247.802L290.989 248.211L290.035 236.129C289.922 234.693 289.449 233.613 288.616 232.889C287.808 232.136 286.738 231.8 285.407 231.88C284.076 231.96 283.056 232.422 282.347 233.266C281.663 234.082 281.377 235.208 281.491 236.643L282.444 248.726L275.657 249.135L274.703 237.053C274.59 235.617 274.117 234.537 273.284 233.813C272.476 233.06 271.406 232.724 270.075 232.804C268.744 232.884 267.724 233.346 267.015 234.19C266.331 235.006 266.045 236.132 266.158 237.567L267.112 249.65L260.285 250.061L258.528 227.811L265.356 227.399L265.576 230.19C266.195 229.218 267.042 228.433 268.118 227.834C269.192 227.208 270.434 226.853 271.845 226.768C273.522 226.667 275.041 226.936 276.402 227.575C277.79 228.212 278.908 229.173 279.759 230.458C280.434 229.188 281.407 228.128 282.677 227.277C283.947 226.426 285.367 225.953 286.938 225.858ZM320.531 240.02L324.11 223.858L331.376 223.42L325.227 246.148L316.802 246.655L307.14 224.881L314.447 224.441L320.531 240.02ZM337.501 220.727C336.304 220.8 335.291 220.513 334.465 219.869C333.663 219.196 333.221 218.341 333.139 217.304C333.055 216.241 333.359 215.341 334.049 214.605C334.765 213.841 335.721 213.423 336.919 213.35C338.09 213.28 339.077 213.581 339.879 214.254C340.705 214.898 341.161 215.752 341.244 216.816C341.326 217.853 341.01 218.753 340.294 219.517C339.604 220.253 338.673 220.657 337.501 220.727ZM341.078 222.836L342.834 245.086L336.007 245.498L334.25 223.247L341.078 222.836ZM359.582 221.48C362.191 221.323 364.334 222.048 366.012 223.657C367.715 225.237 368.683 227.502 368.916 230.453L369.942 243.453L363.154 243.862L362.2 231.779C362.083 230.291 361.606 229.158 360.769 228.38C359.932 227.602 358.861 227.253 357.557 227.332C356.253 227.41 355.247 227.885 354.54 228.755C353.833 229.626 353.538 230.806 353.656 232.294L354.61 244.377L347.782 244.788L346.026 222.537L352.853 222.126L353.086 225.077C353.701 224.052 354.571 223.224 355.699 222.596C356.824 221.94 358.118 221.568 359.582 221.48ZM372.448 232.083C372.267 229.797 372.535 227.764 373.25 225.985C373.992 224.204 375.072 222.804 376.489 221.783C377.906 220.763 379.533 220.198 381.369 220.087C382.833 219.999 384.189 220.224 385.435 220.763C386.707 221.301 387.731 222.067 388.505 223.063L387.689 212.735L394.517 212.323L396.846 241.831L390.019 242.243L389.767 239.053C389.212 240.155 388.361 241.061 387.213 241.771C386.092 242.479 384.747 242.881 383.176 242.976C381.34 243.086 379.639 242.721 378.075 241.881C376.509 241.014 375.218 239.743 374.204 238.068C373.213 236.364 372.628 234.37 372.448 232.083ZM389.14 231.117C389.006 229.416 388.421 228.102 387.385 227.177C386.376 226.249 385.192 225.826 383.835 225.908C382.477 225.99 381.358 226.552 380.478 227.593C379.622 228.606 379.261 229.963 379.395 231.665C379.529 233.366 380.102 234.694 381.113 235.648C382.149 236.574 383.346 236.996 384.704 236.914C386.061 236.832 387.167 236.271 388.021 235.232C388.902 234.19 389.275 232.819 389.14 231.117ZM411.953 241.242C409.77 241.373 407.763 241.027 405.933 240.202C404.129 239.376 402.654 238.129 401.506 236.462C400.384 234.794 399.733 232.803 399.55 230.49C399.369 228.204 399.717 226.166 400.592 224.377C401.465 222.562 402.743 221.136 404.426 220.1C406.11 219.063 408.043 218.479 410.226 218.348C412.408 218.216 414.415 218.563 416.245 219.387C418.075 220.212 419.565 221.471 420.715 223.165C421.863 224.832 422.527 226.808 422.708 229.094C422.888 231.381 422.529 233.432 421.629 235.249C420.754 237.038 419.462 238.452 417.752 239.49C416.068 240.526 414.135 241.11 411.953 241.242ZM411.487 235.34C412.791 235.261 413.858 234.716 414.687 233.705C415.543 232.691 415.901 231.294 415.761 229.513C415.62 227.732 415.059 226.39 414.079 225.488C413.125 224.584 411.996 224.171 410.691 224.25C409.361 224.33 408.294 224.875 407.491 225.885C406.686 226.868 406.355 228.264 406.497 230.071C406.638 231.853 407.172 233.196 408.099 234.102C409.053 235.006 410.182 235.418 411.487 235.34ZM433.431 228.408C433.25 226.122 433.518 224.089 434.233 222.31C434.975 220.529 436.055 219.128 437.472 218.108C438.889 217.088 440.516 216.522 442.353 216.412C443.817 216.324 445.172 216.549 446.418 217.088C447.69 217.626 448.714 218.392 449.488 219.387L448.672 209.059L455.5 208.648L457.829 238.156L451.002 238.568L450.75 235.378C450.195 236.479 449.344 237.385 448.196 238.096C447.076 238.804 445.73 239.206 444.159 239.301C442.323 239.411 440.622 239.046 439.058 238.206C437.492 237.338 436.202 236.067 435.187 234.392C434.197 232.689 433.611 230.694 433.431 228.408ZM450.124 227.442C449.989 225.741 449.404 224.427 448.368 223.501C447.359 222.574 446.176 222.151 444.818 222.233C443.46 222.315 442.341 222.876 441.461 223.918C440.605 224.931 440.244 226.288 440.378 227.99C440.512 229.691 441.085 231.019 442.097 231.973C443.132 232.899 444.329 233.321 445.687 233.239C447.044 233.157 448.15 232.596 449.004 231.556C449.885 230.515 450.258 229.144 450.124 227.442ZM482.864 225.109C482.915 225.747 482.927 226.414 482.902 227.11L467.45 228.041C467.665 229.417 468.189 230.454 469.019 231.151C469.874 231.821 470.874 232.121 472.019 232.052C473.723 231.95 474.85 231.161 475.403 229.685L482.669 229.247C482.412 230.732 481.837 232.088 480.945 233.317C480.079 234.545 478.94 235.535 477.528 236.288C476.117 237.041 474.506 237.472 472.696 237.581C470.513 237.712 468.533 237.364 466.756 236.536C464.979 235.709 463.544 234.46 462.449 232.789C461.354 231.119 460.716 229.128 460.533 226.815C460.351 224.502 460.657 222.454 461.452 220.67C462.274 218.884 463.5 217.474 465.13 216.441C466.76 215.408 468.68 214.825 470.889 214.692C473.045 214.562 474.998 214.898 476.746 215.701C478.494 216.504 479.9 217.715 480.964 219.333C482.055 220.95 482.688 222.875 482.864 225.109ZM475.735 223.735C475.643 222.566 475.17 221.659 474.317 221.016C473.464 220.373 472.438 220.088 471.241 220.16C470.096 220.229 469.151 220.62 468.405 221.332C467.685 222.043 467.281 223.016 467.191 224.25L475.735 223.735ZM294.215 301.704L297.794 285.543L305.061 285.105L298.911 307.832L290.487 308.34L280.824 286.565L288.131 286.125L294.215 301.704ZM319.858 306.89C317.675 307.022 315.668 306.675 313.838 305.851C312.034 305.024 310.559 303.778 309.411 302.111C308.29 300.442 307.638 298.452 307.455 296.139C307.275 293.853 307.622 291.815 308.497 290.026C309.37 288.211 310.648 286.785 312.332 285.748C314.015 284.712 315.948 284.128 318.131 283.997C320.313 283.865 322.32 284.212 324.15 285.036C325.98 285.861 327.47 287.12 328.62 288.813C329.768 290.48 330.433 292.457 330.613 294.743C330.793 297.029 330.434 299.081 329.534 300.898C328.659 302.687 327.367 304.1 325.657 305.138C323.973 306.175 322.04 306.759 319.858 306.89ZM319.392 300.989C320.696 300.91 321.763 300.365 322.592 299.353C323.448 298.34 323.806 296.943 323.666 295.162C323.525 293.381 322.964 292.039 321.984 291.136C321.03 290.232 319.901 289.82 318.596 289.898C317.266 289.978 316.199 290.523 315.396 291.533C314.591 292.517 314.26 293.912 314.402 295.72C314.543 297.501 315.077 298.845 316.004 299.75C316.958 300.654 318.087 301.067 319.392 300.989ZM339.612 275.731L341.941 305.239L335.113 305.65L332.784 276.142L339.612 275.731ZM358.85 298.41L359.306 304.192L355.833 304.402C353.357 304.551 351.38 304.069 349.902 302.956C348.421 301.817 347.572 299.878 347.356 297.14L346.658 288.287L343.942 288.451L343.495 282.788L346.211 282.625L345.782 277.202L352.61 276.79L353.038 282.213L357.51 281.944L357.957 287.606L353.485 287.876L354.19 296.808C354.243 297.473 354.44 297.941 354.783 298.215C355.125 298.488 355.669 298.602 356.414 298.557L358.85 298.41ZM360.871 292.88C360.69 290.593 360.958 288.561 361.673 286.781C362.415 285 363.495 283.6 364.912 282.58C366.329 281.559 367.956 280.994 369.793 280.883C371.363 280.788 372.759 281.025 373.981 281.592C375.229 282.158 376.213 282.94 376.934 283.938L376.685 280.788L383.513 280.377L385.269 302.628L378.442 303.039L378.193 299.889C377.609 300.966 376.744 301.859 375.596 302.569C374.476 303.278 373.13 303.68 371.559 303.774C369.749 303.883 368.062 303.518 366.498 302.677C364.932 301.81 363.642 300.539 362.627 298.864C361.636 297.161 361.051 295.166 360.871 292.88ZM377.563 291.914C377.429 290.212 376.844 288.899 375.808 287.973C374.799 287.045 373.615 286.623 372.258 286.704C370.9 286.786 369.781 287.348 368.901 288.389C368.045 289.402 367.684 290.76 367.818 292.461C367.952 294.162 368.525 295.49 369.537 296.444C370.572 297.37 371.769 297.792 373.127 297.71C374.484 297.628 375.59 297.067 376.444 296.028C377.325 294.986 377.698 293.615 377.563 291.914ZM396.904 272.799L397.613 291.947L391.824 292.296L389.517 273.244L396.904 272.799ZM395.624 302.324C394.426 302.396 393.414 302.11 392.588 301.465C391.786 300.792 391.344 299.938 391.262 298.901C391.178 297.838 391.48 296.925 392.169 296.162C392.884 295.398 393.841 294.979 395.039 294.907C396.21 294.837 397.196 295.138 397.998 295.811C398.827 296.482 399.283 297.349 399.367 298.412C399.449 299.449 399.132 300.35 398.417 301.114C397.726 301.85 396.795 302.253 395.624 302.324ZM412.54 271.856L413.249 291.005L407.459 291.354L405.153 272.302L412.54 271.856ZM411.26 301.382C410.062 301.454 409.05 301.168 408.223 300.523C407.421 299.85 406.979 298.995 406.898 297.959C406.814 296.895 407.116 295.982 407.805 295.22C408.52 294.455 409.477 294.037 410.674 293.965C411.846 293.894 412.832 294.195 413.634 294.868C414.463 295.539 414.919 296.407 415.003 297.47C415.085 298.507 414.768 299.407 414.053 300.172C413.362 300.908 412.431 301.311 411.26 301.382Z" fill="white"/>
</svg>
