<svg xmlns="http://www.w3.org/2000/svg" version="1.1" viewBox="0 0 2400 800" opacity="1">
<defs>
<linearGradient x1="50%" y1="0%" x2="50%" y2="100%" id="sssurf-grad">
<stop stop-color="#C6D4FF" stop-opacity="1" offset="0%"></stop>
<stop stop-color="#DEE8FE" stop-opacity="1" offset="100%"></stop>
</linearGradient>
</defs>
<g fill="url(#sssurf-grad)" transform="matrix(1,0,0,1,8.247314453125,297.2323799133301)">
<path d="M-10,10C47.63888888888889,13.541666666666668,153.47222222222223,35.333333333333336,266.6666666666667,27C379.86111111111114,18.666666666666664,422.2222222222223,-36.041666666666664,533.3333333333334,-30C644.4444444444445,-23.958333333333336,688.8888888888889,54.541666666666664,800,56C911.1111111111111,57.458333333333336,955.5555555555557,-19.666666666666668,1066.6666666666667,-23C1177.7777777777778,-26.333333333333332,1222.2222222222224,35.416666666666664,1333.3333333333335,40C1444.4444444444446,44.583333333333336,1488.888888888889,0.4583333333333335,1600,-1C1711.111111111111,-2.4583333333333335,1755.5555555555557,36.541666666666664,1866.6666666666667,33C1977.7777777777778,29.458333333333332,2022.2222222222224,-23.833333333333336,2133.3333333333335,-18C2244.4444444444443,-12.166666666666666,2292.3611111111113,-26.083333333333343,2400,61C2507.6388888888887,148.08333333333334,3254.1666666666665,225.20833333333331,2650,400C2045.8333333333335,574.7916666666667,156.25,795.8333333333334,-500,900" transform="matrix(1,0,0,1,0,34)" opacity="0.05"></path>
<path d="M-10,10C47.63888888888889,13.541666666666668,153.47222222222223,35.333333333333336,266.6666666666667,27C379.86111111111114,18.666666666666664,422.2222222222223,-36.041666666666664,533.3333333333334,-30C644.4444444444445,-23.958333333333336,688.8888888888889,54.541666666666664,800,56C911.1111111111111,57.458333333333336,955.5555555555557,-19.666666666666668,1066.6666666666667,-23C1177.7777777777778,-26.333333333333332,1222.2222222222224,35.416666666666664,1333.3333333333335,40C1444.4444444444446,44.583333333333336,1488.888888888889,0.4583333333333335,1600,-1C1711.111111111111,-2.4583333333333335,1755.5555555555557,36.541666666666664,1866.6666666666667,33C1977.7777777777778,29.458333333333332,2022.2222222222224,-23.833333333333336,2133.3333333333335,-18C2244.4444444444443,-12.166666666666666,2292.3611111111113,-26.083333333333343,2400,61C2507.6388888888887,148.08333333333334,3254.1666666666665,225.20833333333331,2650,400C2045.8333333333335,574.7916666666667,156.25,795.8333333333334,-500,900" transform="matrix(1,0,0,1,0,68)" opacity="0.53"></path>
<path d="M-10,10C47.63888888888889,13.541666666666668,153.47222222222223,35.333333333333336,266.6666666666667,27C379.86111111111114,18.666666666666664,422.2222222222223,-36.041666666666664,533.3333333333334,-30C644.4444444444445,-23.958333333333336,688.8888888888889,54.541666666666664,800,56C911.1111111111111,57.458333333333336,955.5555555555557,-19.666666666666668,1066.6666666666667,-23C1177.7777777777778,-26.333333333333332,1222.2222222222224,35.416666666666664,1333.3333333333335,40C1444.4444444444446,44.583333333333336,1488.888888888889,0.4583333333333335,1600,-1C1711.111111111111,-2.4583333333333335,1755.5555555555557,36.541666666666664,1866.6666666666667,33C1977.7777777777778,29.458333333333332,2022.2222222222224,-23.833333333333336,2133.3333333333335,-18C2244.4444444444443,-12.166666666666666,2292.3611111111113,-26.083333333333343,2400,61C2507.6388888888887,148.08333333333334,3254.1666666666665,225.20833333333331,2650,400C2045.8333333333335,574.7916666666667,156.25,795.8333333333334,-500,900" transform="matrix(1,0,0,1,0,102)" opacity="1.00"></path>
</g>
</svg>