<svg version="1.1" id="Layer_1" xmlns="http://www.w3.org/2000/svg" xmlns:xlink="http://www.w3.org/1999/xlink" x="0px" y="0px" viewBox="0 0 1200 1200" enable-background="new 0 0 1200 1200" xml:space="preserve">
<g>
	<g>
		<polygon fill="#3BB293" points="1147.57,613.259 1149.924,638.023 1146.189,662.69 1145.071,687.411 1143.634,712.255 &#10;&#9;&#9;&#9;1137.911,736.44 1131.39,760.363 1125.126,784.386 1115.906,807.432 1104.747,829.582 1095.057,852.38 1082.519,873.737 &#10;&#9;&#9;&#9;1069.336,894.665 1056.668,915.995 1042.311,936.238 1026.47,955.349 1008.494,972.518 992.172,990.682 975.033,1008.12 &#10;&#9;&#9;&#9;957.294,1025.014 936.989,1038.789 917.827,1053.968 897.552,1067.632 876.656,1080.323 855.42,1092.458 833.613,1103.567 &#10;&#9;&#9;&#9;810.649,1112.07 787.581,1120.042 764.742,1128.717 740.789,1135.687 716.596,1141.942 691.706,1144.43 667.136,1149.009 &#10;&#9;&#9;&#9;642.129,1149.063 617.263,1152.196 592.342,1149.698 567.452,1148.533 542.509,1147.176 517.942,1142.696 493.735,1136.659 &#10;&#9;&#9;&#9;469.57,1130.731 445.565,1124.174 421.86,1116.571 397.743,1109.824 374.84,1099.83 353.095,1087.479 330.135,1077.515 &#10;&#9;&#9;&#9;309.176,1063.897 287.753,1051.055 267.338,1036.654 247.809,1021.078 229.811,1003.748 210.536,987.853 193.296,969.794 &#10;&#9;&#9;&#9;176.366,951.44 160.668,932.015 147.663,910.643 133.529,890.164 120.534,868.928 108.796,846.964 97.955,824.534 86.873,802.317 &#10;&#9;&#9;&#9;81.115,778.103 71.664,755.128 65.274,731.172 60.486,706.846 58.161,682.152 55.992,657.54 51.777,633.051 51.97,608.269 &#10;&#9;&#9;&#9;53.3,583.561 54.306,558.875 57.365,534.358 59.267,509.68 63.686,485.341 67.79,460.889 74.869,437.138 83.317,413.864 &#10;&#9;&#9;&#9;89.524,389.797 99.536,367.112 110.836,345.069 121.906,322.962 133.403,301.035 146.271,279.864 161.877,260.584 &#10;&#9;&#9;&#9;176.195,240.417 192.939,222.212 209.046,203.447 226.732,186.155 244.91,169.345 264.636,154.381 285.485,141.113 &#10;&#9;&#9;&#9;304.812,125.557 326.237,113.185 348.071,101.563 370.626,91.423 394.124,83.698 417.211,75.094 440.37,66.351 464.275,59.896 &#10;&#9;&#9;&#9;488.854,56.788 513.231,52.595 537.916,51.045 562.62,50 587.245,52.721 612.085,51.57 636.667,54.576 660.762,60.355 &#10;&#9;&#9;&#9;685.2,64.304 708.808,71.723 732.045,80.089 755.3,88.313 778.397,97.069 800.844,107.394 822.329,119.598 843.554,132.166 &#10;&#9;&#9;&#9;865.2,144.102 885.462,158.236 904.976,173.366 925.027,187.835 943.439,204.324 962.104,220.55 978.599,238.996 995.671,256.84 &#10;&#9;&#9;&#9;1011.67,275.654 1028.053,294.21 1040.42,315.76 1056.1,334.95 1068.489,356.343 1081.752,377.238 1091.356,400.081 &#10;&#9;&#9;&#9;1103.287,421.775 1113.068,444.506 1119.714,468.383 1128.545,491.498 1135.416,515.276 1139.242,539.746 1143.968,564.004 &#10;&#9;&#9;&#9;1146.521,588.586 &#9;&#9;" style="--darkreader-inline-fill:#6b93d1; fill: rgb(57, 66, 182);"/>
	</g>
	<g>
		<defs>
			<path id="SVGID_1_" d="M1148.073,613.237c5.344,122.161-35.032,248.218-138.692,360.104&#10;&#9;&#9;&#9;&#9;c-66.305,71.567-150.886,127.344-244.624,155.429c-258.375,77.412-558.117-56.092-667.124-304.095&#10;&#9;&#9;&#9;&#9;C-1.86,598.316,65.145,304.749,264.673,154.431C643.049-130.623,1130.927,221.254,1148.073,613.237z"/>
		</defs>
		<clipPath id="SVGID_2_">
			<use xlink:href="#SVGID_1_" overflow="visible"/>
		</clipPath>
		<g clip-path="url(#SVGID_2_)">
			<g>
				<g>
					<g>
						<line fill="none" x1="609.627" y1="703.742" x2="453.024" y2="703.488"/>
					</g>
					<g>
						<path fill="#FF8492" d="M1148.149,795.321c0.816,17.695-6.648,34.788-20.284,46.099&#10;&#9;&#9;&#9;&#9;&#9;&#9;&#9;c-32.126,26.669-100.119,72.464-202.953,89.048c-24.156,3.936-50.179,6.221-78.122,6.284&#10;&#9;&#9;&#9;&#9;&#9;&#9;&#9;c-98.058,0.222-217.954-0.128-301.628-0.404c-26.856-0.095-49.987-0.146-67.425-0.21l-4.605,0.01&#10;&#9;&#9;&#9;&#9;&#9;&#9;&#9;c-30.582-0.034-57.748-22.482-60.559-52.851c-3.022-32.231,19.994-59.657,50.515-63.607c2.483-0.368,4.967-0.529,7.554-0.535&#10;&#9;&#9;&#9;&#9;&#9;&#9;&#9;l-8.745,0.02c-30.479-0.085-57.748-22.482-60.662-52.902c-3.183-34.818,24.072-64.012,58.173-64.089&#10;&#9;&#9;&#9;&#9;&#9;&#9;&#9;c-34.101-0.13-61.282-29.512-57.946-64.396c2.984-30.279,30.152-52.487,60.527-52.556l-181.267-0.469&#10;&#9;&#9;&#9;&#9;&#9;&#9;&#9;c-0.31,0.001-0.673-0.05-0.983-0.05c-0.983,0.002-1.966-0.047-2.95-0.097c-0.673-0.05-1.346-0.101-2.018-0.151&#10;&#9;&#9;&#9;&#9;&#9;&#9;&#9;c-1.915-0.151-3.882-0.406-5.953-0.71l-0.103,0c-0.621-0.102-1.294-0.204-1.967-0.306c-0.052-0.052-0.104-0.052-0.207-0.051&#10;&#9;&#9;&#9;&#9;&#9;&#9;&#9;c-0.518-0.102-0.984-0.153-1.553-0.255c-0.518-0.102-1.035-0.205-1.501-0.306c-1.087-0.257-2.174-0.461-3.313-0.718&#10;&#9;&#9;&#9;&#9;&#9;&#9;&#9;c-0.466-0.103-0.88-0.205-1.346-0.308c-0.259-0.051-0.569-0.102-0.828-0.205c-7.041-1.691-14.395-4.003-21.749-6.884&#10;&#9;&#9;&#9;&#9;&#9;&#9;&#9;c-13.725-5.403-27.144-12.72-37.305-21.287c-11.354-9.598-18.675-20.76-17.667-32.611l-0.001-0.311c0-0.052,0-0.052,0-0.052&#10;&#9;&#9;&#9;&#9;&#9;&#9;&#9;c-0.086-38.137,50.133-49.376,84.383-51.989c6.674-0.533,12.728-0.702,17.696-0.713l0.051,0l49.418,0.095l216.868,0.493&#10;&#9;&#9;&#9;&#9;&#9;&#9;&#9;l93.143,0.15l15.265,0.017l78.654,0.133l-53.26-51.781c-2.126-2.014-4.875-4.801-7.832-8.055&#10;&#9;&#9;&#9;&#9;&#9;&#9;&#9;c-12.865-13.994-30.769-37.187-30.744-48.623c0.016-15.938,7.121-31.685,21.12-42.118&#10;&#9;&#9;&#9;&#9;&#9;&#9;&#9;c19.217-14.324,55.382,6.189,74.199,21.048l91.894,65.509l66.601,47.507c0,0,52.813,14.37,101.503,58.968l94.023,0.148&#10;&#9;&#9;&#9;&#9;&#9;&#9;&#9;c23.027,0.051,41.955,18.171,42.99,41.196l6.211,137.941L1148.149,795.321z" style="--darkreader-inline-fill:#7d000e;"/>
					</g>
				</g>
				<g>
					<line fill="none" x1="609.441" y1="817.959" x2="452.008" y2="817.704"/>
				</g>
			</g>
			<g>
				<path fill="#FFE99C" d="M459.082,855.353c-0.505,28.408,8.403,54.831,18.656,80.784l-4.605,0.01&#10;&#9;&#9;&#9;&#9;&#9;c-30.582-0.034-57.748-22.482-60.559-52.851c-3.022-32.231,19.994-59.657,50.515-63.607&#10;&#9;&#9;&#9;&#9;&#9;C461.15,831.545,459.314,843.399,459.082,855.353z" style="--darkreader-inline-fill:#ffe487;"/>
			</g>
			<g>
				<path fill="#FFE99C" d="M477.057,703.542l0.001,0.258c-0.306,1.916-0.716,3.78-1.436,5.592&#10;&#9;&#9;&#9;&#9;&#9;c-2.418,6.422-7.477,11.504-10.257,17.773c-5.87,13.053-0.868,28.1,0.924,42.326c2.003,16.036-0.341,32.135-2.892,48.234&#10;&#9;&#9;&#9;&#9;&#9;c0,0.104-0.051,0.154-0.051,0.258c-0.051,0.414-0.102,0.777-0.204,1.191l-1.242,0.003&#10;&#9;&#9;&#9;&#9;&#9;c-30.479-0.085-57.748-22.482-60.662-52.902c-3.183-34.818,24.072-64.012,58.173-64.089&#10;&#9;&#9;&#9;&#9;&#9;c-34.101-0.13-61.282-29.512-57.946-64.396c2.984-30.279,30.152-52.487,60.527-52.556l-10.349-0.028&#10;&#9;&#9;&#9;&#9;&#9;c7.241-1.62,14.274-3.395,21.1-5.274c-0.67,1.399-1.339,2.797-1.957,4.196c-0.052,0.104-0.051,0.156-0.103,0.259&#10;&#9;&#9;&#9;&#9;&#9;c-0.309,0.57-0.567,1.14-0.772,1.762c-2.88,7.923-2.084,16.667-1.185,25.047c2.645,25.506,5.29,51.01,7.987,76.462&#10;&#9;&#9;&#9;&#9;&#9;C477.24,692.881,477.821,698.366,477.057,703.542z" style="--darkreader-inline-fill:#534000;"/>
			</g>
			<g>
				<path fill="#FF474F" d="M267.874,773.097c-0.049,29.93-24.351,54.154-54.282,54.106s-54.154-24.351-54.106-54.281&#10;&#9;&#9;&#9;&#9;&#9;s54.352-97.461,54.352-97.461S267.923,743.167,267.874,773.097z" style="--darkreader-inline-fill:#ff4b53;"/>
			</g>
			<g>
				<path fill="#15000C" d="M1148.149,795.321c0.816,17.695-6.648,34.788-20.284,46.099&#10;&#9;&#9;&#9;&#9;&#9;c-32.126,26.669-100.119,72.464-202.953,89.048c69.801-24.634,185.362-87.662,218.549-240.077L1148.149,795.321z" style="--darkreader-inline-fill:#11000a;"/>
			</g>
			<g>
				<path fill="#FFEFF9" d="M222.518,800.687c-26.586,0-37.628-22.412-39.78-35.459c-0.582-3.525,1.805-6.852,5.329-7.432&#10;&#9;&#9;&#9;&#9;&#9;c3.508-0.594,6.844,1.794,7.432,5.312c0.519,2.985,5.809,28.657,33.574,24.078c3.508-0.607,6.854,1.805,7.436,5.329&#10;&#9;&#9;&#9;&#9;&#9;c0.582,3.524-1.805,6.852-5.329,7.432C228.127,800.453,225.238,800.687,222.518,800.687z" style="--darkreader-inline-fill:#ffc1e8;"/>
			</g>
			<g>
				<path fill="#15000C" d="M453.199,666.624c-0.982,0.112-1.72-0.773-1.718-1.723l0.066-41.054c0.002-0.948,0.77-1.715,1.718-1.715&#10;&#9;&#9;&#9;&#9;&#9;c0.002,0,0.002,0,0.003,0c0.948,0.002,1.716,0.772,1.715,1.722l-0.066,41.054C454.916,665.854,454.147,666.624,453.199,666.624z&#10;&#9;&#9;&#9;&#9;&#9;" style="--darkreader-inline-fill:#e1dfdb;"/>
			</g>
			<g>
				<path fill="#15000C" d="M455.937,786.857c-0.002,0-0.002,0-0.003,0c-0.948-0.003-1.716-0.773-1.715-1.723l0.066-41.052&#10;&#9;&#9;&#9;&#9;&#9;c0.002-0.946,0.77-1.716,1.718-1.716c0.002,0,0.002,0,0.003,0c0.948,0.003,1.716,0.773,1.715,1.723l-0.066,41.052&#10;&#9;&#9;&#9;&#9;&#9;C457.653,786.087,456.885,786.857,455.937,786.857z" style="--darkreader-inline-fill:#e1dfdb;"/>
			</g>
			<g>
				<path fill="#15000C" d="M458.673,907.09c-0.002,0-0.002,0-0.003,0c-0.948-0.003-1.716-0.773-1.715-1.723l0.068-41.052&#10;&#9;&#9;&#9;&#9;&#9;c0.002-0.946,0.77-1.716,1.718-1.716c0.002,0,0.002,0,0.003,0c0.948,0.003,1.716,0.773,1.715,1.723l-0.068,41.052&#10;&#9;&#9;&#9;&#9;&#9;C460.389,906.32,459.621,907.09,458.673,907.09z" style="--darkreader-inline-fill:#e1dfdb;"/>
			</g>
			<g>
				<path fill="#15000C" d="M461.77,820.905c-0.728,0-1.365-0.499-1.586-1.252c-0.268-0.909,0.329-1.883,1.24-2.151&#10;&#9;&#9;&#9;&#9;&#9;c2.61-0.77,137.666-0.56,179-0.475c0.95,0.003,1.716,0.773,1.715,1.723c-0.002,0.946-0.77,1.716-1.718,1.716&#10;&#9;&#9;&#9;&#9;&#9;c-0.002,0-0.002,0-0.003,0c-48.135-0.105-173.983-0.224-178.177,0.37C462.082,820.881,461.924,820.905,461.77,820.905z" style="--darkreader-inline-fill:#11000a;"/>
			</g>
			<g>
				<path fill="#15000C" d="M461.512,707.066c-0.728,0-1.365-0.499-1.586-1.248c-0.27-0.912,0.327-1.886,1.238-2.154&#10;&#9;&#9;&#9;&#9;&#9;c2.612-0.773,137.667-0.56,179.001-0.478c0.95,0.003,1.716,0.773,1.715,1.723c-0.002,0.95-0.746,1.598-1.722,1.716&#10;&#9;&#9;&#9;&#9;&#9;c-48.13-0.098-173.974-0.214-178.175,0.37C461.824,707.042,461.666,707.066,461.512,707.066z" style="--darkreader-inline-fill:#11000a;"/>
			</g>
			<g>
				<path fill="#15000C" d="M461.23,582.876c-0.728,0-1.365-0.499-1.586-1.25c-0.268-0.911,0.329-1.884,1.24-2.152&#10;&#9;&#9;&#9;&#9;&#9;c2.61-0.768,137.671-0.558,179.001-0.475c0.95,0.002,1.716,0.772,1.715,1.722c-0.002,0.948-0.77,1.715-1.718,1.715&#10;&#9;&#9;&#9;&#9;&#9;c-0.002,0-0.002,0-0.003,0c-48.14-0.095-173.981-0.221-178.179,0.371C461.542,582.854,461.385,582.876,461.23,582.876z" style="--darkreader-inline-fill:#11000a;"/>
			</g>
			<g>
				<path fill="#15000C" d="M453.698,533.024c-0.721,0-1.393-0.458-1.632-1.179c-2.887-8.711-4.154-17.777-3.764-26.946&#10;&#9;&#9;&#9;&#9;&#9;c0.039-0.948,0.829-1.739,1.789-1.644c0.948,0.039,1.684,0.841,1.644,1.789c-0.371,8.75,0.838,17.404,3.594,25.718&#10;&#9;&#9;&#9;&#9;&#9;c0.299,0.901-0.19,1.874-1.091,2.173C454.059,532.995,453.876,533.024,453.698,533.024z" style="--darkreader-inline-fill:#e1dfdb;"/>
			</g>
			<g>
				<path fill="#15000C" d="M471.224,529.488c-0.885,0-1.638-0.68-1.711-1.579c-0.443-5.433-0.18-10.906,0.784-16.269&#10;&#9;&#9;&#9;&#9;&#9;c0.168-0.935,1.067-1.562,1.995-1.387c0.935,0.168,1.555,1.06,1.387,1.995c-0.909,5.07-1.158,10.246-0.74,15.384&#10;&#9;&#9;&#9;&#9;&#9;c0.076,0.945-0.628,1.774-1.574,1.852C471.317,529.486,471.271,529.488,471.224,529.488z" style="--darkreader-inline-fill:#e1dfdb;"/>
			</g>
			<g>
				<path fill="#15000C" d="M791.337,423.661c-0.544,0-1.08-0.258-1.415-0.74c-0.541-0.78-0.346-1.85,0.434-2.392l11.423-7.909&#10;&#9;&#9;&#9;&#9;&#9;c0.779-0.543,1.849-0.349,2.392,0.434c0.541,0.78,0.346,1.852-0.434,2.391l-11.423,7.909&#10;&#9;&#9;&#9;&#9;&#9;C792.016,423.563,791.675,423.661,791.337,423.661z" style="--darkreader-inline-fill:#e1dfdb;"/>
			</g>
			<g>
				<path fill="#FFE99C" d="M658.101,468.516c-2.534,0.833-5.119,1.512-7.602,1.932c-88.138,16.344-178.005,23.222-267.583,20.475&#10;&#9;&#9;&#9;&#9;&#9;c-40.779-1.253-85.75-3.169-117.412,22.569c-0.155,0.104-0.31,0.26-0.465,0.415c-11.363,9.237-19.665,21.985-24.447,35.708&#10;&#9;&#9;&#9;&#9;&#9;c-2.21,6.525-3.696,13.256-4.249,20.088c-0.102,0.724-0.152,1.449-0.202,2.173c-0.05,0.776,0.004,1.76,0.11,2.846&#10;&#9;&#9;&#9;&#9;&#9;c-12.844-5.042-25.434-11.792-35.335-19.687c-12.493-9.906-20.696-21.686-19.637-34.211l-0.001-0.311c0-0.052,0-0.052,0-0.052&#10;&#9;&#9;&#9;&#9;&#9;c-0.032-13.971,6.723-24.387,17.004-32.017c17.667-13.235,45.702-18.318,67.379-19.972c6.674-0.533,12.728-0.702,17.696-0.713&#10;&#9;&#9;&#9;&#9;&#9;l0.051,0l49.418,0.095l216.868,0.493l93.143,0.15L658.101,468.516z" style="--darkreader-inline-fill:#534000;"/>
			</g>
			<g>
				<path fill="#FFE99C" d="M264.662,553.286c-4.016,9.013-12.643,15.19-22.21,18.006c-2.019-0.46-4.039-1.026-6.11-1.589&#10;&#9;&#9;&#9;&#9;&#9;c-5.126-1.489-10.408-3.237-15.639-5.295c-6.785-2.676-13.519-5.817-19.788-9.373c-12.493-9.906-20.696-21.686-19.637-34.211&#10;&#9;&#9;&#9;&#9;&#9;l-0.001-0.311c0-0.052,0-0.052,0-0.052c-0.032-13.971,6.723-24.387,17.004-32.017c19.495-5.788,45.579-4.088,55.222,3.962&#10;&#9;&#9;&#9;&#9;&#9;c6.377,5.367,9.654,13.174,11.536,21.501c0.994,4.81,1.523,9.724,1.896,14.535C267.626,536.825,268.009,545.569,264.662,553.286&#10;&#9;&#9;&#9;&#9;&#9;z" style="--darkreader-inline-fill:#ffe487;"/>
			</g>
			<g>
				<path fill="#15000C" d="M280.497,547.483c-0.176,0-0.358-0.029-0.536-0.086c-0.901-0.295-1.393-1.267-1.097-2.169&#10;&#9;&#9;&#9;&#9;&#9;c1.506-4.593,1.716-9.578,1.725-13.847c0.024-12.454-2.347-21.008-7.458-26.915c-5.463-6.313-14.622-9.778-25.009-9.512&#10;&#9;&#9;&#9;&#9;&#9;c-9.547,0.246-18.85,3.331-27.847,6.316c-0.902,0.3-1.876-0.19-2.173-1.091c-0.299-0.901,0.19-1.874,1.091-2.173&#10;&#9;&#9;&#9;&#9;&#9;c9.234-3.063,18.783-6.23,28.84-6.489c11.439-0.273,21.557,3.606,27.696,10.699c7.47,8.633,8.313,20.782,8.296,29.171&#10;&#9;&#9;&#9;&#9;&#9;c-0.007,4.539-0.239,9.859-1.895,14.912C281.893,547.024,281.22,547.483,280.497,547.483z" style="--darkreader-inline-fill:#e1dfdb;"/>
			</g>
			<g>
				<path fill="#FFE99C" d="M832.738,405.122c-4.142,4.706-9.111,8.431-15.166,9.929c-7.866,1.91-16.041-0.319-23.698-2.858&#10;&#9;&#9;&#9;&#9;&#9;c-16.815-5.649-33.007-13.056-48.32-22.015c-12.364-7.251-29.538-18.281-44.753-15.132&#10;&#9;&#9;&#9;&#9;&#9;c-21.942,4.544-12.998,19.348-22.991,32.072c-0.518,0.62-0.984,1.19-1.553,1.758c-12.826-14.029-30.667-37.272-30.61-48.707&#10;&#9;&#9;&#9;&#9;&#9;c0.06-15.938,7.208-31.665,21.236-42.06c19.256-14.271,55.365,6.341,74.141,21.252L832.738,405.122z" style="--darkreader-inline-fill:#534000;"/>
			</g>
			<g>
				<path fill="#15000C" d="M701.059,369.837c-1.932,0-3.779-0.358-5.3-0.716c-11.377-2.67-21.954-9.542-29.02-18.856&#10;&#9;&#9;&#9;&#9;&#9;c-0.573-0.755-0.426-1.833,0.331-2.407c0.756-0.573,1.833-0.426,2.407,0.331c6.591,8.686,16.457,15.095,27.07,17.587&#10;&#9;&#9;&#9;&#9;&#9;c1.991,0.466,4.32,0.885,6.503,0.436c2.975-0.616,5.567-2.836,7.924-5.144c6.825-6.683,12.653-14.293,17.324-22.619&#10;&#9;&#9;&#9;&#9;&#9;c0.463-0.829,1.511-1.126,2.341-0.658c0.828,0.465,1.123,1.513,0.658,2.341c-4.832,8.611-10.86,16.481-17.918,23.393&#10;&#9;&#9;&#9;&#9;&#9;c-2.732,2.675-5.79,5.26-9.636,6.053C702.847,369.763,701.944,369.837,701.059,369.837z" style="--darkreader-inline-fill:#e1dfdb;"/>
			</g>
			<g>
				<path fill="#15000C" d="M771.929,415.712c-0.334,0-0.67-0.097-0.967-0.299c-0.784-0.534-0.985-1.605-0.451-2.388&#10;&#9;&#9;&#9;&#9;&#9;c5.058-7.415,12.037-13.335,20.182-17.115c0.862-0.402,1.884-0.025,2.283,0.834c0.4,0.862,0.025,1.883-0.834,2.283&#10;&#9;&#9;&#9;&#9;&#9;c-7.585,3.521-14.081,9.03-18.791,15.935C773.018,415.45,772.478,415.712,771.929,415.712z" style="--darkreader-inline-fill:#e1dfdb;"/>
			</g>
		</g>
	</g>
</g>
</svg>